<svg width="10" height="14" viewBox="0 0 10 14" fill="none" xmlns="http://www.w3.org/2000/svg">
<path d="M0.762652 6.60404L8.46065 6.60445C9.03532 6.60448 9.34069 5.92449 8.95871 5.49447L5.11027 1.16427C5.04785 1.0938 4.97118 1.03739 4.88533 0.998745C4.79949 0.960105 4.70642 0.940123 4.61228 0.940118C4.51814 0.940113 4.42507 0.960086 4.33922 0.998716C4.25338 1.03735 4.1767 1.09376 4.11427 1.16422L0.264044 5.49401C-0.117979 5.92399 0.187319 6.60401 0.762652 6.60404ZM4.11296 13.3769C4.17539 13.4474 4.25205 13.5038 4.3379 13.5424C4.42374 13.581 4.51681 13.601 4.61095 13.601C4.70509 13.601 4.79816 13.5811 4.88401 13.5424C4.96986 13.5038 5.04653 13.4474 5.10896 13.3769L8.95786 9.04714C9.34055 8.61782 9.03525 7.93781 8.45992 7.93778L0.762582 7.93737C0.187916 7.93734 -0.117454 8.61733 0.264524 9.04735L4.11296 13.3769Z" fill="#9E9E9E"/>
</svg>
