<svg width="18" height="20" viewBox="0 0 18 20" fill="none" xmlns="http://www.w3.org/2000/svg">
<path d="M18 18V4C18 2.897 17.103 2 16 2H15C14.4477 2 14 1.55228 14 1C14 0.447715 13.5523 0 13 0C12.4477 0 12 0.447715 12 1C12 1.55228 11.5523 2 11 2H7C6.44772 2 6 1.55228 6 1C6 0.447715 5.55228 0 5 0C4.44772 0 4 0.447715 4 1C4 1.55228 3.55228 2 3 2H2C0.897 2 0 2.897 0 4V18C0 19.103 0.897 20 2 20H16C17.103 20 18 19.103 18 18ZM6 15C6 15.5523 5.55228 16 5 16C4.44772 16 4 15.5523 4 15C4 14.4477 4.44772 14 5 14C5.55228 14 6 14.4477 6 15ZM6 11C6 11.5523 5.55228 12 5 12C4.44772 12 4 11.5523 4 11C4 10.4477 4.44772 10 5 10C5.55228 10 6 10.4477 6 11ZM10 15C10 15.5523 9.55229 16 9 16C8.44771 16 8 15.5523 8 15C8 14.4477 8.44771 14 9 14C9.55229 14 10 14.4477 10 15ZM10 11C10 11.5523 9.55229 12 9 12C8.44771 12 8 11.5523 8 11C8 10.4477 8.44771 10 9 10C9.55229 10 10 10.4477 10 11ZM14 15C14 15.5523 13.5523 16 13 16C12.4477 16 12 15.5523 12 15C12 14.4477 12.4477 14 13 14C13.5523 14 14 14.4477 14 15ZM14 11C14 11.5523 13.5523 12 13 12C12.4477 12 12 11.5523 12 11C12 10.4477 12.4477 10 13 10C13.5523 10 14 10.4477 14 11ZM16 6C16 6.55228 15.5523 7 15 7H3C2.44772 7 2 6.55228 2 6C2 5.44772 2.44772 5 3 5H15C15.5523 5 16 5.44772 16 6Z" fill="#1D1166"/>
</svg>
