<svg width="77" height="75" viewBox="0 0 77 75" fill="none" xmlns="http://www.w3.org/2000/svg">
<path d="M67.1686 21.7975V18.6857H60.8251V21.7975H56.7684L53.5966 12.4622H23.6486L20.4768 21.7975H6.90479V65.3625H70.3404V21.7975H67.1686ZM63.9968 59.1389H13.2483V28.0211H25.0505L28.2223 18.6857H49.0229L52.1946 28.0211H63.9968V59.1389Z" fill="#E1E1E1"/>
<path d="M38.6226 28.0211C35.7997 28.0211 33.0402 28.8423 30.693 30.381C28.3458 31.9197 26.5164 34.1066 25.4361 36.6654C24.3558 39.2241 24.0731 42.0396 24.6239 44.7559C25.1746 47.4723 26.534 49.9673 28.5301 51.9257C30.5262 53.8841 33.0694 55.2177 35.8381 55.758C38.6068 56.2983 41.4766 56.021 44.0847 54.9612C46.6927 53.9013 48.9219 52.1065 50.4902 49.8037C52.0585 47.501 52.8956 44.7936 52.8956 42.0241C52.8914 38.3115 51.3863 34.7522 48.7105 32.127C46.0347 29.5018 42.4068 28.0252 38.6226 28.0211V28.0211ZM38.6226 49.8035C37.0543 49.8035 35.5213 49.3473 34.2173 48.4925C32.9133 47.6376 31.8969 46.4227 31.2968 45.0011C30.6966 43.5796 30.5396 42.0154 30.8455 40.5064C31.1515 38.9973 31.9067 37.6111 33.0157 36.5232C34.1246 35.4352 35.5375 34.6943 37.0757 34.3941C38.6138 34.0939 40.2082 34.248 41.6571 34.8368C43.106 35.4256 44.3444 36.4227 45.2157 37.702C46.087 38.9814 46.5521 40.4854 46.5521 42.0241C46.5521 44.0873 45.7167 46.0661 44.2296 47.525C42.7425 48.9839 40.7256 49.8035 38.6226 49.8035V49.8035Z" fill="#E1E1E1"/>
</svg>
