<svg width="16" height="16" viewBox="0 0 16 16" fill="none" xmlns="http://www.w3.org/2000/svg">
<path d="M4.406 1.34157C5.40548 0.479708 6.68024 0.00371127 8 -0.000427246C10.69 -0.000427246 12.923 1.99957 13.166 4.57857C14.758 4.80357 16 6.13657 16 7.77257C16 9.56857 14.502 10.9996 12.687 10.9996H10C9.86739 10.9996 9.74021 10.9469 9.64645 10.8531C9.55268 10.7594 9.5 10.6322 9.5 10.4996C9.5 10.367 9.55268 10.2398 9.64645 10.146C9.74021 10.0523 9.86739 9.99957 10 9.99957H12.688C13.979 9.99957 15 8.98757 15 7.77257C15 6.55657 13.98 5.54457 12.687 5.54457H12.187V5.04457C12.188 2.82457 10.328 0.999573 8 0.999573C6.91988 1.00389 5.87684 1.39401 5.059 2.09957C4.302 2.75157 3.906 3.53757 3.906 4.15457V4.60257L3.461 4.65157C2.064 4.80457 1 5.95157 1 7.31757C1 8.78457 2.23 9.99957 3.781 9.99957H6C6.13261 9.99957 6.25979 10.0523 6.35355 10.146C6.44732 10.2398 6.5 10.367 6.5 10.4996C6.5 10.6322 6.44732 10.7594 6.35355 10.8531C6.25979 10.9469 6.13261 10.9996 6 10.9996H3.781C1.708 10.9996 0 9.36557 0 7.31757C0 5.55457 1.266 4.09457 2.942 3.72457C3.085 2.86157 3.64 2.00157 4.406 1.34157Z" fill="white"/>
<path d="M7.64602 15.8536C7.69247 15.9001 7.74764 15.9371 7.80839 15.9623C7.86913 15.9875 7.93425 16.0005 8.00002 16.0005C8.06579 16.0005 8.13091 15.9875 8.19165 15.9623C8.2524 15.9371 8.30758 15.9001 8.35402 15.8536L11.354 12.8536C11.4479 12.7597 11.5007 12.6323 11.5007 12.4996C11.5007 12.3668 11.4479 12.2395 11.354 12.1456C11.2601 12.0517 11.1328 11.9989 11 11.9989C10.8672 11.9989 10.7399 12.0517 10.646 12.1456L8.50002 14.2926V5.49957C8.50002 5.36696 8.44734 5.23979 8.35358 5.14602C8.25981 5.05225 8.13263 4.99957 8.00002 4.99957C7.86741 4.99957 7.74024 5.05225 7.64647 5.14602C7.5527 5.23979 7.50002 5.36696 7.50002 5.49957V14.2926L5.35402 12.1456C5.26013 12.0517 5.1328 11.9989 5.00002 11.9989C4.86725 11.9989 4.73991 12.0517 4.64602 12.1456C4.55213 12.2395 4.49939 12.3668 4.49939 12.4996C4.49939 12.6323 4.55213 12.7597 4.64602 12.8536L7.64602 15.8536Z" fill="white"/>
</svg>
