<svg width="62" height="18" viewBox="0 0 62 18" fill="none" xmlns="http://www.w3.org/2000/svg">
<path d="M0.03125 17V1H4.375V13.5H10.8438V17H0.03125ZM27.4766 9C27.4766 10.7812 27.1302 12.2839 26.4375 13.5078C25.7448 14.7266 24.8099 15.651 23.6328 16.2812C22.4557 16.9062 21.1432 17.2187 19.6953 17.2187C18.237 17.2187 16.9193 16.9036 15.7422 16.2734C14.5703 15.638 13.638 14.7109 12.9453 13.4922C12.2578 12.2682 11.9141 10.7708 11.9141 9C11.9141 7.21875 12.2578 5.71875 12.9453 4.5C13.638 3.27604 14.5703 2.35156 15.7422 1.72656C16.9193 1.09635 18.237 0.781249 19.6953 0.781249C21.1432 0.781249 22.4557 1.09635 23.6328 1.72656C24.8099 2.35156 25.7448 3.27604 26.4375 4.5C27.1302 5.71875 27.4766 7.21875 27.4766 9ZM23.0078 9C23.0078 8.04167 22.8802 7.23437 22.625 6.57812C22.375 5.91667 22.0026 5.41667 21.5078 5.07812C21.0182 4.73437 20.4141 4.5625 19.6953 4.5625C18.9766 4.5625 18.3698 4.73437 17.875 5.07812C17.3854 5.41667 17.013 5.91667 16.7578 6.57812C16.5078 7.23437 16.3828 8.04167 16.3828 9C16.3828 9.95833 16.5078 10.7682 16.7578 11.4297C17.013 12.0859 17.3854 12.5859 17.875 12.9297C18.3698 13.2682 18.9766 13.4375 19.6953 13.4375C20.4141 13.4375 21.0182 13.2682 21.5078 12.9297C22.0026 12.5859 22.375 12.0859 22.625 11.4297C22.8802 10.7682 23.0078 9.95833 23.0078 9ZM39.877 6.28125C39.8092 6.00521 39.7025 5.76302 39.5566 5.55469C39.4108 5.34115 39.2285 5.16146 39.0098 5.01563C38.7962 4.86458 38.5462 4.7526 38.2598 4.67969C37.9785 4.60156 37.6686 4.5625 37.3301 4.5625C36.6009 4.5625 35.9785 4.73698 35.4629 5.08594C34.9525 5.4349 34.5618 5.9375 34.291 6.59375C34.0254 7.25 33.8926 8.04167 33.8926 8.96875C33.8926 9.90625 34.0202 10.7083 34.2754 11.375C34.5306 12.0417 34.9108 12.5521 35.416 12.9062C35.9212 13.2604 36.5488 13.4375 37.2988 13.4375C37.9603 13.4375 38.5098 13.3411 38.9473 13.1484C39.39 12.9557 39.7207 12.6823 39.9395 12.3281C40.1582 11.974 40.2676 11.5573 40.2676 11.0781L41.0176 11.1562H37.3613V8.0625H44.4551V10.2812C44.4551 11.7396 44.1452 12.987 43.5254 14.0234C42.9108 15.0547 42.0618 15.8464 40.9785 16.3984C39.9004 16.9453 38.6634 17.2187 37.2676 17.2187C35.7103 17.2187 34.3431 16.888 33.166 16.2266C31.9889 15.5651 31.0697 14.6224 30.4082 13.3984C29.752 12.1745 29.4238 10.7187 29.4238 9.03125C29.4238 7.70833 29.6243 6.53646 30.0254 5.51562C30.4316 4.49479 30.9941 3.63281 31.7129 2.92969C32.4316 2.22135 33.2624 1.6875 34.2051 1.32812C35.1478 0.963541 36.1582 0.781249 37.2363 0.781249C38.1842 0.781249 39.0645 0.916666 39.877 1.1875C40.6947 1.45312 41.416 1.83333 42.041 2.32812C42.6712 2.81771 43.179 3.39844 43.5645 4.07031C43.9499 4.74219 44.1842 5.47917 44.2676 6.28125H39.877ZM61.9805 9C61.9805 10.7812 61.6341 12.2839 60.9414 13.5078C60.2487 14.7266 59.3138 15.651 58.1367 16.2812C56.9596 16.9062 55.6471 17.2187 54.1992 17.2187C52.7409 17.2187 51.4232 16.9036 50.2461 16.2734C49.0742 15.638 48.1419 14.7109 47.4492 13.4922C46.7617 12.2682 46.418 10.7708 46.418 9C46.418 7.21875 46.7617 5.71875 47.4492 4.5C48.1419 3.27604 49.0742 2.35156 50.2461 1.72656C51.4232 1.09635 52.7409 0.781249 54.1992 0.781249C55.6471 0.781249 56.9596 1.09635 58.1367 1.72656C59.3138 2.35156 60.2487 3.27604 60.9414 4.5C61.6341 5.71875 61.9805 7.21875 61.9805 9ZM57.5117 9C57.5117 8.04167 57.3841 7.23437 57.1289 6.57812C56.8789 5.91667 56.5065 5.41667 56.0117 5.07812C55.5221 4.73437 54.918 4.5625 54.1992 4.5625C53.4805 4.5625 52.8737 4.73437 52.3789 5.07812C51.8893 5.41667 51.5169 5.91667 51.2617 6.57812C51.0117 7.23437 50.8867 8.04167 50.8867 9C50.8867 9.95833 51.0117 10.7682 51.2617 11.4297C51.5169 12.0859 51.8893 12.5859 52.3789 12.9297C52.8737 13.2682 53.4805 13.4375 54.1992 13.4375C54.918 13.4375 55.5221 13.2682 56.0117 12.9297C56.5065 12.5859 56.8789 12.0859 57.1289 11.4297C57.3841 10.7682 57.5117 9.95833 57.5117 9Z" fill="#1D1166"/>
</svg>
